<svg width="417" height="96" viewBox="0 0 417 96" fill="none" xmlns="http://www.w3.org/2000/svg">
<path d="M10 80C7.92 80 6.8 78.88 6.8 76.8V27.2C6.8 25.12 7.92 24 10 24H45.44C47.52 24 48.64 25.12 48.64 27.2V30C48.64 32.08 47.52 33.2 45.44 33.2H23.6V76.8C23.6 78.88 22.48 80 20.4 80H10ZM84.8588 80C83.0188 80 81.7388 79.2 81.1788 77.36L78.4588 69.04H59.0188L56.6188 77.28C56.0588 79.04 54.8588 80 53.0188 80H49.1788C46.8587 80 45.8988 78.56 46.5388 76.4L61.8188 26.64C62.3788 24.88 63.5788 24 65.4188 24H76.1388C77.9788 24 79.1788 24.88 79.8188 26.56L97.8988 76.32C98.6988 78.48 97.6588 80 95.3388 80H84.8588ZM61.4988 60.64H75.6588L68.3788 38.72H67.9788L61.4988 60.64ZM166.469 24C168.549 24 169.669 25.12 169.669 27.2V76.8C169.669 78.88 168.549 80 166.469 80H156.069C153.989 80 152.869 78.88 152.869 76.8V42.4H152.469L140.949 77.36C140.389 79.2 139.109 80 137.269 80H131.669C129.829 80 128.629 79.12 128.069 77.36L116.469 42.4H116.069V76.8C116.069 78.88 114.949 80 112.869 80H110.469C108.389 80 107.269 78.88 107.269 76.8V27.2C107.269 25.12 108.389 24 110.469 24H124.069C125.909 24 127.109 24.8 127.669 26.64L137.669 58.32H138.069L148.309 26.64C148.869 24.8 150.149 24 151.989 24H166.469ZM242.484 24C244.564 24 245.684 25.12 245.684 27.2V76.8C245.684 78.88 244.564 80 242.484 80H232.084C230.004 80 228.884 78.88 228.884 76.8V42.4H228.484L216.964 77.36C216.404 79.2 215.124 80 213.284 80H207.684C205.844 80 204.644 79.12 204.084 77.36L192.484 42.4H192.084V76.8C192.084 78.88 190.964 80 188.884 80H186.484C184.404 80 183.284 78.88 183.284 76.8V27.2C183.284 25.12 184.404 24 186.484 24H200.084C201.924 24 203.124 24.8 203.684 26.64L213.684 58.32H214.084L224.324 26.64C224.884 24.8 226.164 24 228.004 24H242.484ZM293.14 80C291.3 80 290.02 79.2 289.46 77.36L286.74 69.04H267.3L264.9 77.28C264.34 79.04 263.14 80 261.3 80H257.46C255.14 80 254.18 78.56 254.82 76.4L270.1 26.64C270.66 24.88 271.86 24 273.7 24H284.42C286.26 24 287.46 24.88 288.1 26.56L306.18 76.32C306.98 78.48 305.94 80 303.62 80H293.14ZM269.78 60.64H283.94L276.66 38.72H276.26L269.78 60.64Z" fill="#3E46FF"/>
<path d="M404.32 54.2376H404.147L389.813 50.6232L403.365 47.666L404.32 47.5839C404.32 47.5839 418.828 44.7088 416.743 34.1943C416.483 32.6336 415.788 30.9907 414.745 29.1835C406.058 14.3154 392.766 28.2799 392.766 28.2799L392.332 28.7728L382.255 38.2194L386.598 24.6656C386.598 24.6656 392.593 7.33307 374.957 7.00449C374.87 7.00449 374.784 7.00449 374.697 7.00449C374.61 7.00449 374.61 7.00449 374.61 7.00449C356.627 6.67591 362.882 24.5013 362.882 24.5013L366.791 38.3016L356.801 28.1978L356.54 27.9513C356.54 27.9513 349.243 20.3119 341.772 22.5298C339.252 23.2691 336.733 25.0763 334.474 28.6085C325.266 43.1481 344.725 47.0089 344.725 47.0089H344.899L359.233 50.6232L345.594 53.5804L344.639 53.6626C344.639 53.6626 330.131 56.5376 332.216 67.0521C332.476 68.5307 333.171 70.2558 334.214 72.0629C342.901 86.9311 356.193 72.9665 356.193 72.9665L356.54 72.4737L366.704 62.8628L362.361 76.3345C362.361 76.3345 356.366 93.667 374.002 93.9955C374.089 93.9955 374.175 93.9955 374.262 93.9955H374.349C392.332 94.3241 386.164 76.4166 386.164 76.4166L382.255 62.9449L392.158 72.9665L392.419 73.2951C392.419 73.2951 398.587 79.7024 405.363 79.1274C408.49 78.8809 411.705 77.1559 414.485 72.638C423.78 58.0984 404.32 54.2376 404.32 54.2376Z" fill="#FFA0D3"/>
</svg>
