<svg width="211" height="81" viewBox="0 0 211 81" fill="none" xmlns="http://www.w3.org/2000/svg">
<path d="M3.75 39C2.97 39 2.55 38.58 2.55 37.8V19.2C2.55 18.42 2.97 18 3.75 18H17.04C17.82 18 18.24 18.42 18.24 19.2V20.25C18.24 21.03 17.82 21.45 17.04 21.45H8.85V37.8C8.85 38.58 8.43 39 7.65 39H3.75ZM31.822 39C31.132 39 30.652 38.7 30.442 38.01L29.422 34.89H22.132L21.232 37.98C21.022 38.64 20.572 39 19.882 39H18.442C17.572 39 17.212 38.46 17.452 37.65L23.182 18.99C23.392 18.33 23.842 18 24.532 18H28.552C29.242 18 29.692 18.33 29.932 18.96L36.712 37.62C37.012 38.43 36.622 39 35.752 39H31.822ZM23.062 31.74H28.372L25.642 23.52H25.492L23.062 31.74ZM62.4258 18C63.2058 18 63.6258 18.42 63.6258 19.2V37.8C63.6258 38.58 63.2058 39 62.4258 39H58.5258C57.7458 39 57.3258 38.58 57.3258 37.8V24.9H57.1758L52.8558 38.01C52.6458 38.7 52.1658 39 51.4758 39H49.3758C48.6858 39 48.2358 38.67 48.0258 38.01L43.6758 24.9H43.5258V37.8C43.5258 38.58 43.1058 39 42.3258 39H41.4258C40.6458 39 40.2258 38.58 40.2258 37.8V19.2C40.2258 18.42 40.6458 18 41.4258 18H46.5258C47.2158 18 47.6658 18.3 47.8758 18.99L51.6258 30.87H51.7758L55.6158 18.99C55.8258 18.3 56.3058 18 56.9958 18H62.4258ZM90.9316 18C91.7116 18 92.1316 18.42 92.1316 19.2V37.8C92.1316 38.58 91.7116 39 90.9316 39H87.0316C86.2516 39 85.8316 38.58 85.8316 37.8V24.9H85.6816L81.3616 38.01C81.1516 38.7 80.6716 39 79.9816 39H77.8816C77.1916 39 76.7416 38.67 76.5316 38.01L72.1816 24.9H72.0316V37.8C72.0316 38.58 71.6116 39 70.8316 39H69.9316C69.1516 39 68.7316 38.58 68.7316 37.8V19.2C68.7316 18.42 69.1516 18 69.9316 18H75.0316C75.7216 18 76.1716 18.3 76.3816 18.99L80.1316 30.87H80.2816L84.1216 18.99C84.3316 18.3 84.8116 18 85.5016 18H90.9316ZM109.928 39C109.238 39 108.758 38.7 108.548 38.01L107.528 34.89H100.238L99.3375 37.98C99.1275 38.64 98.6775 39 97.9875 39H96.5475C95.6775 39 95.3175 38.46 95.5575 37.65L101.288 18.99C101.498 18.33 101.948 18 102.638 18H106.658C107.348 18 107.798 18.33 108.038 18.96L114.818 37.62C115.118 38.43 114.728 39 113.858 39H109.928ZM101.168 31.74H106.478L103.748 23.52H103.598L101.168 31.74Z" fill="#3E46FF"/>
<path d="M100.724 40L76.2476 66C70.7477 72 68.4716 81.6802 82.806 68.4865C97.1404 55.2927 103.94 48.3294 105.548 46.4969C108.075 43.8315 113.267 40.1 113.818 46.4969C114.369 52.8939 114.048 65.4879 113.818 70.9853V79C115.656 80.1661 117.08 80.2977 124.248 75.5C131.415 70.7023 128.29 50.5 128.29 40" stroke="black" stroke-width="2"/>
<path d="M154.248 38C162.748 47.5 161.748 47.5 168.748 50C175.748 52.5 207.748 52 209.248 43" stroke="black" stroke-width="2"/>
<path d="M150.815 30.1153H150.742L144.683 28.4997L150.411 27.1778L150.815 27.1411C150.815 27.1411 156.947 25.8559 156.066 21.1559C155.956 20.4583 155.662 19.7239 155.222 18.9161C151.55 12.27 145.932 18.5122 145.932 18.5122L145.748 18.7325L141.489 22.9551L143.325 16.8965C143.325 16.8965 145.858 9.14888 138.404 9.00201C138.368 9.00201 138.331 9.00201 138.294 9.00201C138.258 9.00201 138.258 9.00201 138.258 9.00201C130.657 8.85513 133.301 16.8231 133.301 16.8231L134.953 22.9919L130.73 18.4754L130.62 18.3653C130.62 18.3653 127.536 14.9504 124.378 15.9418C123.313 16.2723 122.248 17.0801 121.293 18.659C117.401 25.1583 125.626 26.884 125.626 26.884H125.7L131.758 28.4997L125.993 29.8215L125.59 29.8583C125.59 29.8583 119.458 31.1434 120.339 35.8434C120.449 36.5044 120.743 37.2754 121.183 38.0833C124.855 44.7293 130.473 38.4872 130.473 38.4872L130.62 38.2668L134.916 33.9708L133.08 39.9926C133.08 39.9926 130.547 47.7403 138.001 47.8872C138.037 47.8872 138.074 47.8872 138.111 47.8872H138.147C145.748 48.034 143.141 40.0294 143.141 40.0294L141.489 34.0075L145.675 38.4872L145.785 38.634C145.785 38.634 148.392 41.4981 151.256 41.2411C152.578 41.1309 153.936 40.3598 155.111 38.3403C159.04 31.8411 150.815 30.1153 150.815 30.1153Z" fill="#FFA0D3"/>
</svg>
